<?xml version="1.0" encoding="UTF-8" standalone="no"?>
<!-- Created with Inkscape (http://www.inkscape.org/) -->

<svg
   xmlns:dc="http://purl.org/dc/elements/1.1/"
   xmlns:cc="http://creativecommons.org/ns#"
   xmlns:rdf="http://www.w3.org/1999/02/22-rdf-syntax-ns#"
   xmlns:svg="http://www.w3.org/2000/svg"
   xmlns="http://www.w3.org/2000/svg"
   xmlns:xlink="http://www.w3.org/1999/xlink"
   xmlns:sodipodi="http://sodipodi.sourceforge.net/DTD/sodipodi-0.dtd"
   xmlns:inkscape="http://www.inkscape.org/namespaces/inkscape"
   width="361.33969"
   height="81.704674"
   id="svg2"
   version="1.1"
   inkscape:version="0.48.5 r10040"
   sodipodi:docname="gc_footprint.svg">
  <defs
     id="defs4" />
  <sodipodi:namedview
     id="base"
     pagecolor="#ffffff"
     bordercolor="#666666"
     borderopacity="1.0"
     inkscape:pageopacity="0.0"
     inkscape:pageshadow="2"
     inkscape:zoom="1.979899"
     inkscape:cx="163.89957"
     inkscape:cy="42.092629"
     inkscape:document-units="mm"
     inkscape:current-layer="layer1"
     showgrid="false"
     units="mm"
     fit-margin-top="0"
     fit-margin-left="0"
     fit-margin-right="0"
     fit-margin-bottom="0"
     showguides="true"
     inkscape:guide-bbox="true"
     inkscape:window-width="1280"
     inkscape:window-height="969"
     inkscape:window-x="1024"
     inkscape:window-y="33"
     inkscape:window-maximized="1">
    <sodipodi:guide
       orientation="0,1"
       position="-1.6071429,40.803572"
       id="guide3159" />
    <sodipodi:guide
       orientation="1,0"
       position="9.1071429,46.696429"
       id="guide3161" />
    <sodipodi:guide
       orientation="1,0"
       position="31.607143,50.089286"
       id="guide3939" />
    <sodipodi:guide
       orientation="1,0"
       position="24.419643,45.892857"
       id="guide3957" />
    <sodipodi:guide
       orientation="0,1"
       position="82.767857,71.696429"
       id="guide3989" />
    <sodipodi:guide
       orientation="1,0"
       position="68.839286,60.267857"
       id="guide3993" />
    <sodipodi:guide
       orientation="0,1"
       position="98.303572,65.089286"
       id="guide4001" />
    <sodipodi:guide
       orientation="1,0"
       position="98.75,71.696429"
       id="guide4003" />
  </sodipodi:namedview>
  <metadata
     id="metadata7">
    <rdf:RDF>
      <cc:Work
         rdf:about="">
        <dc:format>image/svg+xml</dc:format>
        <dc:type
           rdf:resource="http://purl.org/dc/dcmitype/StillImage" />
        <dc:title />
      </cc:Work>
    </rdf:RDF>
  </metadata>
  <g
     inkscape:label="scan"
     inkscape:groupmode="layer"
     id="layer1"
     transform="translate(1341.3572,-1017.8718)"
     style="display:inline">
    <image
       sodipodi:absref="/home/chris/Documents/elec/nindento-pads-usb/gc_footprint.jpg"
       xlink:href="gc_footprint.jpg"
       y="1017.8718"
       x="-1341.3572"
       id="image3155"
       height="81.704674"
       width="361.33969" />
  </g>
  <g
     inkscape:groupmode="layer"
     id="layer2"
     inkscape:label="footprint"
     style="display:inline">
    <g
       id="g3971">
      <path
         d="m 13.125,40.9011 c 0,2.219002 -1.798856,4.017858 -4.0178576,4.017858 -2.2190014,0 -4.0178575,-1.798856 -4.0178575,-4.017858 0,-2.219001 1.7988561,-4.017857 4.0178575,-4.017857 2.2190016,0 4.0178576,1.798856 4.0178576,4.017857 z"
         sodipodi:ry="4.0178576"
         sodipodi:rx="4.0178576"
         sodipodi:cy="40.9011"
         sodipodi:cx="9.1071424"
         id="path3169"
         style="fill:none;stroke:#ff0000;stroke-width:0.0992126;stroke-miterlimit:4;stroke-opacity:1;stroke-dasharray:none"
         sodipodi:type="arc" />
      <use
         height="81.704674"
         width="361.33969"
         transform="translate(45.075577,0)"
         id="use3941"
         xlink:href="#path3169"
         y="0"
         x="0" />
      <use
         height="81.704674"
         width="361.33969"
         transform="matrix(1.0618912,0,0,1.0618912,21.936349,19.610726)"
         id="use3943"
         xlink:href="#path3169"
         y="0"
         x="0" />
      <use
         height="81.704674"
         width="361.33969"
         transform="matrix(1.0618912,0,0,1.0618912,21.936349,-21.609867)"
         id="use3945"
         xlink:href="#path3169"
         y="0"
         x="0" />
      <path
         transform="translate(0.13392858,0)"
         d="m 26.294643,34.427887 c 0,1.035534 -0.839466,1.875 -1.875,1.875 -1.035533,0 -1.874999,-0.839466 -1.874999,-1.875 0,-1.035534 0.839466,-1.875 1.874999,-1.875 1.035534,0 1.875,0.839466 1.875,1.875 z"
         sodipodi:ry="1.8749999"
         sodipodi:rx="1.8749999"
         sodipodi:cy="34.427887"
         sodipodi:cx="24.419643"
         id="path3959"
         style="fill:none;stroke:#ff0000;stroke-width:0.0992126;stroke-miterlimit:4;stroke-opacity:1;stroke-dasharray:none"
         sodipodi:type="arc" />
      <use
         height="81.704674"
         width="361.33969"
         transform="translate(14.178572,0)"
         id="use3961"
         xlink:href="#path3959"
         y="0"
         x="0" />
      <use
         height="81.704674"
         width="361.33969"
         transform="translate(0,12.89286)"
         id="use3963"
         xlink:href="#path3959"
         y="0"
         x="0" />
      <use
         height="81.704674"
         width="361.33969"
         transform="translate(7.089283,0)"
         id="use3965"
         xlink:href="#path3959"
         y="0"
         x="0" />
      <use
         height="81.704674"
         width="361.33969"
         transform="translate(0,12.89286)"
         id="use3967"
         xlink:href="#use3961"
         y="0"
         x="0" />
      <use
         height="81.704674"
         width="361.33969"
         transform="translate(-7.0892868,0)"
         id="use3969"
         xlink:href="#use3967"
         y="0"
         x="0" />
    </g>
    <use
       x="0"
       y="0"
       xlink:href="#g3971"
       id="use3983"
       transform="translate(297.59824,0)"
       width="361.33969"
       height="81.704674" />
    <use
       x="0"
       y="0"
       xlink:href="#use3983"
       id="use3985"
       transform="translate(-198.39882,0)"
       width="361.33969"
       height="81.704674" />
    <use
       x="0"
       y="0"
       xlink:href="#use3985"
       id="use3987"
       transform="translate(99.199402,0)"
       width="361.33969"
       height="81.704674" />
    <g
       id="g4007">
      <path
         transform="translate(0,0.17857142)"
         d="m 94.374997,22.776102 c 0,7.051493 -5.716364,12.767858 -12.767857,12.767858 -7.051493,0 -12.767858,-5.716365 -12.767858,-12.767858 0,-7.051493 5.716365,-12.767857 12.767858,-12.767857 7.051493,0 12.767857,5.716364 12.767857,12.767857 z"
         sodipodi:ry="12.767858"
         sodipodi:rx="12.767858"
         sodipodi:cy="22.776102"
         sodipodi:cx="81.60714"
         id="path3999"
         style="fill:none;stroke:#ff0000;stroke-width:0.0992126;stroke-miterlimit:4;stroke-opacity:1;stroke-dasharray:none"
         sodipodi:type="arc" />
      <path
         transform="translate(-0.08928571,-0.08928571)"
         d="m 107.32143,12.329674 c 0,2.366935 -1.91878,4.285714 -4.28572,4.285714 -2.36693,0 -4.285711,-1.918779 -4.285711,-4.285714 0,-2.3669351 1.918781,-4.2857149 4.285711,-4.2857149 2.36694,0 4.28572,1.9187798 4.28572,4.2857149 z"
         sodipodi:ry="4.2857146"
         sodipodi:rx="4.2857146"
         sodipodi:cy="12.329674"
         sodipodi:cx="103.03571"
         id="path4005"
         style="fill:none;stroke:#ff0000;stroke-width:0.0992126;stroke-miterlimit:4;stroke-opacity:1;stroke-dasharray:none"
         sodipodi:type="arc" />
    </g>
    <use
       x="0"
       y="0"
       xlink:href="#g4007"
       id="use4011"
       transform="matrix(1,0,0,-1,198.31565,81.361529)"
       width="361.33969"
       height="81.704674" />
  </g>
</svg>
